REM DIRINDEX 1\2,1\3,1\4,1\5,1\6
REM DIRNAME cjc091,folder01,folder02,folder03,folder04,folder05
TITLE ""
FILE "CD1-22.mp3" MP3
  TRACK 01 AUDIO
    TITLE "6:cjc091_0489"
    INDEX 01 00:00:00
  TRACK 02 AUDIO
    TITLE "0:"
    INDEX 01 00:01:54
  TRACK 03 AUDIO
    TITLE "2:cjc091_0490"
    INDEX 01 00:03:10
  TRACK 04 AUDIO
    TITLE "0:"
    INDEX 01 00:05:30
  TRACK 05 AUDIO
    TITLE "3:cjc091_0491"
    INDEX 01 00:05:48
  TRACK 06 AUDIO
    TITLE "0:"
    INDEX 01 00:07:72
  TRACK 07 AUDIO
    TITLE "4:cjc091_0492"
    INDEX 01 00:08:21
  TRACK 08 AUDIO
    TITLE "4:cjc091_0493"
    INDEX 01 00:11:11
  TRACK 09 AUDIO
    TITLE "4:cjc091_0494"
    INDEX 01 00:13:53
  TRACK 10 AUDIO
    TITLE "0:"
    INDEX 01 00:17:02
  TRACK 11 AUDIO
    TITLE "2:cjc091_0495"
    INDEX 01 00:18:13
  TRACK 12 AUDIO
    TITLE "0:"
    INDEX 01 00:20:10
  TRACK 13 AUDIO
    TITLE "3:cjc091_0496"
    INDEX 01 00:20:30
  TRACK 14 AUDIO
    TITLE "0:"
    INDEX 01 00:22:50
  TRACK 15 AUDIO
    TITLE "4:cjc091_0497"
    INDEX 01 00:22:68
  TRACK 16 AUDIO
    TITLE "4:cjc091_0498"
    INDEX 01 00:25:15
  TRACK 17 AUDIO
    TITLE "0:"
    INDEX 01 00:30:46
  TRACK 18 AUDIO
    TITLE "2:cjc091_0499"
    INDEX 01 00:31:59
  TRACK 19 AUDIO
    TITLE "0:"
    INDEX 01 00:33:03
  TRACK 20 AUDIO
    TITLE "3:cjc091_0500"
    INDEX 01 00:33:34
  TRACK 21 AUDIO
    TITLE "0:"
    INDEX 01 00:35:43
  TRACK 22 AUDIO
    TITLE "4:cjc091_0501"
    INDEX 01 00:35:64
  TRACK 23 AUDIO
    TITLE "4:cjc091_0502"
    INDEX 01 00:38:08
  TRACK 24 AUDIO
    TITLE "4:cjc091_0503"
    INDEX 01 00:40:58
  TRACK 25 AUDIO
    TITLE "0:"
    INDEX 01 00:43:25
  TRACK 26 AUDIO
    TITLE "2:cjc091_0504"
    INDEX 01 00:44:40
  TRACK 27 AUDIO
    TITLE "0:"
    INDEX 01 00:46:09
  TRACK 28 AUDIO
    TITLE "3:cjc091_0505"
    INDEX 01 00:46:33
  TRACK 29 AUDIO
    TITLE "0:"
    INDEX 01 00:48:12
  TRACK 30 AUDIO
    TITLE "4:cjc091_0506"
    INDEX 01 00:48:34
  TRACK 31 AUDIO
    TITLE "4:cjc091_0507"
    INDEX 01 00:51:40
  TRACK 32 AUDIO
    TITLE "4:cjc091_0508"
    INDEX 01 00:54:29
  TRACK 33 AUDIO
    TITLE "0:"
    INDEX 01 00:57:66
  TRACK 34 AUDIO
    TITLE "2:cjc091_0509"
    INDEX 01 00:59:02
  TRACK 35 AUDIO
    TITLE "0:"
    INDEX 01 01:00:47
  TRACK 36 AUDIO
    TITLE "3:cjc091_0510"
    INDEX 01 01:00:62
  TRACK 37 AUDIO
    TITLE "0:"
    INDEX 01 01:01:70
  TRACK 38 AUDIO
    TITLE "4:cjc091_0511"
    INDEX 01 01:02:20
  TRACK 39 AUDIO
    TITLE "4:cjc091_0512"
    INDEX 01 01:04:50
  TRACK 40 AUDIO
    TITLE "0:"
    INDEX 01 01:07:02
  TRACK 41 AUDIO
    TITLE "2:cjc091_0513"
    INDEX 01 01:08:11
  TRACK 42 AUDIO
    TITLE "0:"
    INDEX 01 01:10:22
  TRACK 43 AUDIO
    TITLE "3:cjc091_0514"
    INDEX 01 01:10:45
  TRACK 44 AUDIO
    TITLE "0:"
    INDEX 01 01:12:24
  TRACK 45 AUDIO
    TITLE "4:cjc091_0515"
    INDEX 01 01:12:44
  TRACK 46 AUDIO
    TITLE "4:cjc091_0516"
    INDEX 01 01:15:40
  TRACK 47 AUDIO
    TITLE "0:"
    INDEX 01 01:18:66
  TRACK 48 AUDIO
    TITLE "2:cjc091_0517"
    INDEX 01 01:19:70
  TRACK 49 AUDIO
    TITLE "0:"
    INDEX 01 01:22:07
  TRACK 50 AUDIO
    TITLE "3:cjc091_0518"
    INDEX 01 01:22:23
  TRACK 51 AUDIO
    TITLE "0:"
    INDEX 01 01:24:49
  TRACK 52 AUDIO
    TITLE "4:cjc091_0519"
    INDEX 01 01:24:73
  TRACK 53 AUDIO
    TITLE "4:cjc091_0520"
    INDEX 01 01:25:68
  TRACK 54 AUDIO
    TITLE "4:cjc091_0521"
    INDEX 01 01:28:57
  TRACK 55 AUDIO
    TITLE "4:cjc091_0522"
    INDEX 01 01:31:30
  TRACK 56 AUDIO
    TITLE "4:cjc091_0523"
    INDEX 01 01:34:40
  TRACK 57 AUDIO
    TITLE "0:"
    INDEX 01 01:37:17
  TRACK 58 AUDIO
    TITLE "2:cjc091_0524"
    INDEX 01 01:38:34
  TRACK 59 AUDIO
    TITLE "0:"
    INDEX 01 01:40:09
  TRACK 60 AUDIO
    TITLE "3:cjc091_0525"
    INDEX 01 01:40:38
  TRACK 61 AUDIO
    TITLE "0:"
    INDEX 01 01:41:63
  TRACK 62 AUDIO
    TITLE "4:cjc091_0526"
    INDEX 01 01:42:08
  TRACK 63 AUDIO
    TITLE "4:cjc091_0527"
    INDEX 01 01:44:23
  TRACK 64 AUDIO
    TITLE "4:cjc091_0528"
    INDEX 01 01:46:51
  TRACK 65 AUDIO
    TITLE "4:cjc091_0529"
    INDEX 01 01:50:41
  TRACK 66 AUDIO
    TITLE "0:"
    INDEX 01 01:51:68
  TRACK 67 AUDIO
    TITLE "2:cjc091_0530"
    INDEX 01 01:53:04
  TRACK 68 AUDIO
    TITLE "0:"
    INDEX 01 01:54:21
  TRACK 69 AUDIO
    TITLE "3:cjc091_0531"
    INDEX 01 01:54:41
  TRACK 70 AUDIO
    TITLE "0:"
    INDEX 01 01:56:08
  TRACK 71 AUDIO
    TITLE "4:cjc091_0532"
    INDEX 01 01:56:30
  TRACK 72 AUDIO
    TITLE "4:cjc091_0533"
    INDEX 01 01:58:38
  TRACK 73 AUDIO
    TITLE "4:cjc091_0534"
    INDEX 01 01:59:69
  TRACK 74 AUDIO
    TITLE "4:cjc091_0535"
    INDEX 01 02:01:17
  TRACK 75 AUDIO
    TITLE "0:"
    INDEX 01 02:02:64
  TRACK 76 AUDIO
    TITLE "2:cjc091_0536"
    INDEX 01 02:04:02
  TRACK 77 AUDIO
    TITLE "0:"
    INDEX 01 02:05:33
  TRACK 78 AUDIO
    TITLE "3:cjc091_0537"
    INDEX 01 02:05:54
  TRACK 79 AUDIO
    TITLE "0:"
    INDEX 01 02:07:02
  TRACK 80 AUDIO
    TITLE "4:cjc091_0538"
    INDEX 01 02:07:22
  TRACK 81 AUDIO
    TITLE "4:cjc091_0539"
    INDEX 01 02:11:39
  TRACK 82 AUDIO
    TITLE "0:"
    INDEX 01 02:12:64
